<svg xmlns="http://www.w3.org/2000/svg" viewBox="0 0 100 100" preserveAspectRatio="xMidYMid" width="100" height="100" style="shape-rendering: auto; display: block; background: transparent;" xmlns:xlink="http://www.w3.org/1999/xlink"><g><g transform="rotate(0 50 50)">
  <rect x="47" y="24" rx="3" ry="6" width="6" height="12" fill="#6a737b">
    <animate attributeName="opacity" values="1;0" keyTimes="0;1" dur="1.3888888888888888s" begin="-1.2731481481481481s" repeatCount="indefinite"></animate>
  </rect>
</g><g transform="rotate(30 50 50)">
  <rect x="47" y="24" rx="3" ry="6" width="6" height="12" fill="#6a737b">
    <animate attributeName="opacity" values="1;0" keyTimes="0;1" dur="1.3888888888888888s" begin="-1.1574074074074074s" repeatCount="indefinite"></animate>
  </rect>
</g><g transform="rotate(60 50 50)">
  <rect x="47" y="24" rx="3" ry="6" width="6" height="12" fill="#6a737b">
    <animate attributeName="opacity" values="1;0" keyTimes="0;1" dur="1.3888888888888888s" begin="-1.0416666666666665s" repeatCount="indefinite"></animate>
  </rect>
</g><g transform="rotate(90 50 50)">
  <rect x="47" y="24" rx="3" ry="6" width="6" height="12" fill="#6a737b">
    <animate attributeName="opacity" values="1;0" keyTimes="0;1" dur="1.3888888888888888s" begin="-0.9259259259259258s" repeatCount="indefinite"></animate>
  </rect>
</g><g transform="rotate(120 50 50)">
  <rect x="47" y="24" rx="3" ry="6" width="6" height="12" fill="#6a737b">
    <animate attributeName="opacity" values="1;0" keyTimes="0;1" dur="1.3888888888888888s" begin="-0.8101851851851851s" repeatCount="indefinite"></animate>
  </rect>
</g><g transform="rotate(150 50 50)">
  <rect x="47" y="24" rx="3" ry="6" width="6" height="12" fill="#6a737b">
    <animate attributeName="opacity" values="1;0" keyTimes="0;1" dur="1.3888888888888888s" begin="-0.6944444444444444s" repeatCount="indefinite"></animate>
  </rect>
</g><g transform="rotate(180 50 50)">
  <rect x="47" y="24" rx="3" ry="6" width="6" height="12" fill="#6a737b">
    <animate attributeName="opacity" values="1;0" keyTimes="0;1" dur="1.3888888888888888s" begin="-0.5787037037037037s" repeatCount="indefinite"></animate>
  </rect>
</g><g transform="rotate(210 50 50)">
  <rect x="47" y="24" rx="3" ry="6" width="6" height="12" fill="#6a737b">
    <animate attributeName="opacity" values="1;0" keyTimes="0;1" dur="1.3888888888888888s" begin="-0.4629629629629629s" repeatCount="indefinite"></animate>
  </rect>
</g><g transform="rotate(240 50 50)">
  <rect x="47" y="24" rx="3" ry="6" width="6" height="12" fill="#6a737b">
    <animate attributeName="opacity" values="1;0" keyTimes="0;1" dur="1.3888888888888888s" begin="-0.3472222222222222s" repeatCount="indefinite"></animate>
  </rect>
</g><g transform="rotate(270 50 50)">
  <rect x="47" y="24" rx="3" ry="6" width="6" height="12" fill="#6a737b">
    <animate attributeName="opacity" values="1;0" keyTimes="0;1" dur="1.3888888888888888s" begin="-0.23148148148148145s" repeatCount="indefinite"></animate>
  </rect>
</g><g transform="rotate(300 50 50)">
  <rect x="47" y="24" rx="3" ry="6" width="6" height="12" fill="#6a737b">
    <animate attributeName="opacity" values="1;0" keyTimes="0;1" dur="1.3888888888888888s" begin="-0.11574074074074073s" repeatCount="indefinite"></animate>
  </rect>
</g><g transform="rotate(330 50 50)">
  <rect x="47" y="24" rx="3" ry="6" width="6" height="12" fill="#6a737b">
    <animate attributeName="opacity" values="1;0" keyTimes="0;1" dur="1.3888888888888888s" begin="0s" repeatCount="indefinite"></animate>
  </rect>
</g><g></g></g><!-- [ldio] generated by https://loading.io --></svg>